<svg xmlns="http://www.w3.org/2000/svg" width="18.18" height="20.777" viewBox="0 0 18.18 20.777">
  <path id="trash-alt-regular" d="M10.875,16.881h.974a.487.487,0,0,0,.487-.487V7.629a.487.487,0,0,0-.487-.487h-.974a.487.487,0,0,0-.487.487v8.765A.487.487,0,0,0,10.875,16.881ZM17.53,3.246H14.186l-1.38-2.3A1.948,1.948,0,0,0,11.135,0H7.044a1.948,1.948,0,0,0-1.67.946l-1.38,2.3H.649A.649.649,0,0,0,0,3.9v.649a.649.649,0,0,0,.649.649H1.3V18.829a1.948,1.948,0,0,0,1.948,1.948H14.933a1.948,1.948,0,0,0,1.948-1.948V5.194h.649a.649.649,0,0,0,.649-.649V3.9A.649.649,0,0,0,17.53,3.246ZM6.973,2.066a.243.243,0,0,1,.209-.118H11a.243.243,0,0,1,.209.118l.709,1.18H6.265Zm7.96,16.763H3.246V5.194H14.933Zm-8.6-1.948H7.3a.487.487,0,0,0,.487-.487V7.629A.487.487,0,0,0,7.3,7.142H6.33a.487.487,0,0,0-.487.487v8.765A.487.487,0,0,0,6.33,16.881Z" fill="#f44336"/>
</svg>
